<?xml version="1.0" encoding="utf-8"?>
<!-- Generator: Adobe Illustrator 16.0.0, SVG Export Plug-In . SVG Version: 6.00 Build 0)  -->
<!DOCTYPE svg PUBLIC "-//W3C//DTD SVG 1.1//EN" "http://www.w3.org/Graphics/SVG/1.1/DTD/svg11.dtd">
<svg version="1.1" id="Layer_1" xmlns="http://www.w3.org/2000/svg" xmlns:xlink="http://www.w3.org/1999/xlink" x="0px" y="0px"
	 width="530px" height="40px" viewBox="0 0 530 40" enable-background="new 0 0 530 40" xml:space="preserve">
<g>
	<path fill="#3D245C" d="M328.64,39.999c-0.274,0-0.551-0.068-0.793-0.212l-62.605-36.75l-63.845,36.756
		c-0.479,0.275-1.083,0.275-1.563,0L135.988,3.037l-62.606,36.75c-0.462,0.269-1.045,0.283-1.521,0.036L0.764,2.613
		C0.045,2.237-0.211,1.386,0.19,0.713c0.404-0.671,1.312-0.91,2.03-0.536l70.327,36.807l62.642-36.771
		c0.48-0.282,1.09-0.285,1.574-0.007l63.853,36.76l63.853-36.76c0.484-0.278,1.095-0.275,1.574,0.007l62.599,36.746l62.598-36.746
		c0.483-0.284,1.102-0.284,1.585,0l62.653,36.777l72.319-36.821c0.724-0.366,1.63-0.117,2.022,0.56
		c0.396,0.676,0.127,1.524-0.597,1.892l-73.086,37.21c-0.473,0.24-1.048,0.222-1.505-0.044l-62.6-36.745l-62.6,36.745
		C329.19,39.931,328.913,39.999,328.64,39.999z"/>
</g>
</svg>
